<?xml version="1.0" encoding="utf-8"?>
<!-- Generator: Adobe Illustrator 21.0.0, SVG Export Plug-In . SVG Version: 6.00 Build 0)  -->
<svg version="1.1" xmlns="http://www.w3.org/2000/svg" xmlns:xlink="http://www.w3.org/1999/xlink" x="0px" y="0px"
	 viewBox="0 0 100 100" style="enable-background:new 0 0 100 100;" xml:space="preserve">
<style type="text/css">
	.st0{fill:#89C2EA;}
	.st1{fill:#35B04A;}
	.st2{fill:#309947;}
	.st3{fill:#5ABA55;}
	.st4{fill:#5FBC56;}
</style>
<g id="Background">
	<circle class="st0" cx="50" cy="50" r="50"/>
</g>
<g id="Basil">
	<path class="st1" d="M52.7,100c0,0,2.8-71.2,5-73.8c0,0,1.7-3.2-2.5,0S50,100,50,100H52.7z"/>
	<path class="st2" d="M54.9,40.4c0,0,14.3-10.3,13.9,3.8c0,0,18.9,6.4,5.1,23.9c0,0-14.3-5.6-7.3-22.5c0,0,1.8-11.4-11.8-2.9V40.4z"
		/>
	<path class="st1" d="M54,59.8l9.5-5.8c0,0,12-9.8,26-2.6c0,0-8.3,8.3-17.8,8.4s-10-2.4-10-2.4l-7.2,4L54,59.8z"/>
	<path class="st1" d="M51.9,59.6l-12.5-5.8c0,0-14.6-8.9-26.4,3.9c0,0,17.1,6.5,25.9-1.6l13,6.2V59.6z"/>
	<path class="st1" d="M53.4,39.6L43.5,34c0,0-17.3-5.5-19.6,5.6c0,0,13.6,4,19.3-2l10.3,3.9V39.6z"/>
	<path class="st1" d="M55.9,32.6c0,0,7-9.5,15.9-6.1C71.7,26.5,67.5,36,55.9,32.6z"/>
	<path class="st1" d="M54,31.9c0,0-6.4-11.1-15.4-8.1C38.6,23.8,42.4,35.3,54,31.9z"/>
	<path class="st1" d="M55.4,27.9c0,0-6.1-3.5-5.4-7.4C50,20.5,55.8,20.6,55.4,27.9z"/>
	<path class="st1" d="M56.3,27.6c0,0,4.2,1.3,7.5-2.4C63.8,25.3,58.4,22.7,56.3,27.6z"/>
	<path class="st3" d="M51.9,58.6c0,0-8.4-1.3-7.3-7.8C44.6,50.9,51.5,48.1,51.9,58.6z"/>
	<path class="st4" d="M53.4,56.6c0,0,3.6-7.7,9.6-4.6C63,52,64.5,56.9,53.4,56.6z"/>
</g>
</svg>
