<?xml version="1.0" encoding="utf-8"?>
<!-- Generator: Adobe Illustrator 21.0.0, SVG Export Plug-In . SVG Version: 6.00 Build 0)  -->
<svg version="1.1" xmlns="http://www.w3.org/2000/svg" xmlns:xlink="http://www.w3.org/1999/xlink" x="0px" y="0px"
	 viewBox="0 0 100 100" style="enable-background:new 0 0 100 100;" xml:space="preserve">
<style type="text/css">
	.st0{fill:#89C3EA;}
	.st1{fill:#C9E5C7;}
	.st2{fill:#309947;}
	.st3{fill:#35B04A;}
	.st4{fill:#5ABA55;}
</style>
<g id="Background">
	<circle class="st0" cx="50" cy="50" r="50"/>
</g>
<g id="Lettuce">
	<path class="st1" d="M40.6,84.8c0,0,0.9,4.6,0.8,6.3h14.3c0,0,0.1-4.8,1.1-6.3H40.6z"/>
	<path class="st2" d="M53.6,88.4c0,0,32-36.7,27.2-58.7c-4.7-22-18.9-12-21.1-7C57.6,27.8,53.6,88.4,53.6,88.4z"/>
	<path class="st3" d="M43.5,89.7c0,0-28.5-34.3-24.4-50.8s10.4-19.2,15.1-13.7s10.6,39.9,10.7,46C44.9,77.3,43.5,89.7,43.5,89.7z"/>
	<path class="st3" d="M50.7,89.7C47.8,88.7,34.1,40,49,24C63.1,9,68.3,15,71,21.9c2.7,6.9-6.5,40.9-9,47.9
		C59.4,76.9,50.7,89.7,50.7,89.7z"/>
	<path class="st4" d="M46.1,89.8c0,0-23.2-48.5-15.7-63.5s16.2-12.2,19.8-6.5c3.7,5.7,6,32.2,4.5,43.5S46.1,89.8,46.1,89.8z"/>
</g>
</svg>
