<?xml version="1.0" encoding="utf-8"?>
<!-- Generator: Adobe Illustrator 21.0.0, SVG Export Plug-In . SVG Version: 6.00 Build 0)  -->
<svg version="1.1" xmlns="http://www.w3.org/2000/svg" xmlns:xlink="http://www.w3.org/1999/xlink" x="0px" y="0px"
	 viewBox="0 0 100 100" style="enable-background:new 0 0 100 100;" xml:space="preserve">
<style type="text/css">
	.st0{fill:#89C2EA;}
	.st1{fill:url(#SVGID_1_);}
	.st2{fill:#58BB62;}
	.st3{fill:#35B04A;}
	.st4{fill:#64AF75;}
	.st5{fill:#91C1A2;}
	.st6{fill:#71AF94;}
</style>
<g id="Background">
	<circle class="st0" cx="50" cy="50" r="50"/>
</g>
<g id="Kale">
	<linearGradient id="SVGID_1_" gradientUnits="userSpaceOnUse" x1="26.5084" y1="75.3734" x2="75.8744" y2="26.0074">
		<stop  offset="4.950495e-03" style="stop-color:#35B04A"/>
		<stop  offset="0.2133" style="stop-color:#39AF4B"/>
		<stop  offset="0.3477" style="stop-color:#41AE4E"/>
		<stop  offset="0.4612" style="stop-color:#4DAB56"/>
		<stop  offset="0.5632" style="stop-color:#5AA862"/>
		<stop  offset="0.6574" style="stop-color:#68A471"/>
		<stop  offset="0.7459" style="stop-color:#779E81"/>
		<stop  offset="0.83" style="stop-color:#869691"/>
		<stop  offset="0.9105" style="stop-color:#978BA2"/>
		<stop  offset="0.9856" style="stop-color:#A67EB1"/>
		<stop  offset="1" style="stop-color:#A97BB6"/>
	</linearGradient>
	<path class="st1" d="M38.5,87.4c0,0-2.5-10.3-5.1-15.6s-1.8-14.2,1.1-17.5c2.9-3.3,4-3.6,6.1-5.2c2.1-1.5,8.3-18.7,5.5-25.3
		s3.7-8.5,5.8-11c2-2.5,4.3-7.5,9.5-1.2s4.4,10.5,3.4,12.9s3.8,6.6,4.2,12.9c0.4,6.2-5.8,12.7-6.8,15.8c-1.1,3.2,3.6,10.2,3.5,18.6
		S41.6,88.7,41.6,88.7L38.5,87.4z"/>
	<path class="st2" d="M34.5,95.4c0,0,31.1-56.4,21.7-85c0,0,12.7,35.5-18.4,85H34.5z"/>
	<g id="Edges">
		<g>
			<g>
				<path class="st3" d="M37.1,85.6c0.9,0,3.1-1.4,1.2-1.4C37.4,84.2,35.2,85.6,37.1,85.6L37.1,85.6z"/>
			</g>
		</g>
		<g>
			<g>
				<path class="st3" d="M37.5,86.7c0.9,0,3.1-1.3,1.2-1.3C37.9,85.4,35.6,86.7,37.5,86.7L37.5,86.7z"/>
			</g>
		</g>
		<g>
			<g>
				<path class="st3" d="M38,87.5c1,0,3.1-1.5,1.2-1.5C38.2,86,36.1,87.5,38,87.5L38,87.5z"/>
			</g>
		</g>
		<g>
			<g>
				<path class="st3" d="M36.4,85.2c1.2,0,3-1.8,1.1-1.8C36.3,83.4,34.4,85.2,36.4,85.2L36.4,85.2z"/>
			</g>
		</g>
		<g>
			<g>
				<path class="st3" d="M37.6,83.8c1.7,0,2.2-2.2,0.2-2.2C36.2,81.5,35.7,83.8,37.6,83.8L37.6,83.8z"/>
			</g>
		</g>
		<g>
			<g>
				<path class="st3" d="M35.6,82.1c0.7,0,3.3-1.3,1.9-1.3C36.8,80.9,34.2,82.1,35.6,82.1L35.6,82.1z"/>
			</g>
		</g>
		<g>
			<g>
				<path class="st3" d="M35.3,82.1c1.7,0,2.2-2.3,0.2-2.3C33.8,79.8,33.4,82.1,35.3,82.1L35.3,82.1z"/>
			</g>
		</g>
		<g>
			<g>
				<path class="st3" d="M36.1,81c1.1,0,3.1-1.7,1.1-1.7C36.1,79.3,34.1,81,36.1,81L36.1,81z"/>
			</g>
		</g>
		<g>
			<g>
				<path class="st3" d="M35.5,79.8c1.1,0,3.1-1.6,1.1-1.6C35.5,78.2,33.5,79.8,35.5,79.8L35.5,79.8z"/>
			</g>
		</g>
		<g>
			<g>
				<path class="st3" d="M34.9,78.3c0.6,0,3.3-1.2,1.9-1.2C36.2,77.2,33.5,78.3,34.9,78.3L34.9,78.3z"/>
			</g>
		</g>
		<g>
			<g>
				<path class="st3" d="M35.8,79.1c1.7,0,2.2-2.3,0.2-2.3C34.3,76.8,33.9,79.1,35.8,79.1L35.8,79.1z"/>
			</g>
		</g>
		<g>
			<g>
				<path class="st3" d="M34.4,77.6c1.2,0,3-1.8,1.1-1.8C34.2,75.8,32.4,77.6,34.4,77.6L34.4,77.6z"/>
			</g>
		</g>
		<g>
			<g>
				<path class="st3" d="M33.7,76.6c1.1,0,3.1-1.7,1.1-1.7C33.7,74.9,31.7,76.6,33.7,76.6L33.7,76.6z"/>
			</g>
		</g>
		<g>
			<g>
				<path class="st3" d="M34.2,75.4c1.1,0,3.1-1.7,1.1-1.7C34.2,73.7,32.3,75.4,34.2,75.4L34.2,75.4z"/>
			</g>
		</g>
		<g>
			<g>
				<path class="st3" d="M34.7,74.5c1.7,0,2.2-2.1,0.3-2.1C33.3,72.3,32.7,74.5,34.7,74.5L34.7,74.5z"/>
			</g>
		</g>
		<g>
			<g>
				<path class="st3" d="M32.6,73.7c1.7,0,2.2-2.1,0.3-2.1C31.2,71.6,30.6,73.7,32.6,73.7L32.6,73.7z"/>
			</g>
		</g>
		<g>
			<g>
				<path class="st3" d="M33.2,72.2c1.2,0,3-1.8,1.1-1.8C33.1,70.4,31.3,72.2,33.2,72.2L33.2,72.2z"/>
			</g>
		</g>
		<g>
			<g>
				<path class="st3" d="M32.4,71.2c1.2,0,3-1.9,1.1-1.9C32.2,69.3,30.4,71.2,32.4,71.2L32.4,71.2z"/>
			</g>
		</g>
		<g>
			<g>
				<path class="st3" d="M32.2,69.6c1.2,0,3-1.8,1.1-1.8C32,67.8,30.2,69.6,32.2,69.6L32.2,69.6z"/>
			</g>
		</g>
		<g>
			<g>
				<path class="st3" d="M29.9,68.1c0.6,0,3.3-1.1,1.9-1.1C31.2,66.9,28.5,68.1,29.9,68.1L29.9,68.1z"/>
			</g>
		</g>
		<g>
			<g>
				<path class="st3" d="M31,69c1.3,0,3-2,1-2C30.7,67,29,69,31,69L31,69z"/>
			</g>
		</g>
		<g>
			<g>
				<path class="st3" d="M31.4,67.4c1.2,0,3-1.9,1.1-1.9C31.3,65.5,29.5,67.4,31.4,67.4L31.4,67.4z"/>
			</g>
		</g>
		<g>
			<g>
				<path class="st3" d="M31.3,65.6c1,0,3.1-1.5,1.2-1.5C31.4,64.1,29.4,65.6,31.3,65.6L31.3,65.6z"/>
			</g>
		</g>
		<g>
			<g>
				<path class="st3" d="M31.7,64.6c1.2,0,3-1.8,1.1-1.8C31.6,62.8,29.8,64.6,31.7,64.6L31.7,64.6z"/>
			</g>
		</g>
		<g>
			<g>
				<path class="st3" d="M30.1,63.7c0.9,0,3.1-1.3,1.2-1.3C30.5,62.4,28.2,63.7,30.1,63.7L30.1,63.7z"/>
			</g>
		</g>
		<g>
			<g>
				<path class="st3" d="M31.1,62.1c0.6,0,3.3-1.2,1.9-1.2C32.4,61,29.8,62.1,31.1,62.1L31.1,62.1z"/>
			</g>
		</g>
		<g>
			<g>
				<path class="st3" d="M32.3,63.4c1.7,0,2.2-2.3,0.2-2.3C30.9,61.1,30.4,63.4,32.3,63.4L32.3,63.4z"/>
			</g>
		</g>
		<g>
			<g>
				<path class="st3" d="M31.7,61.2c1.3,0,3-1.9,1-1.9C31.4,59.3,29.7,61.2,31.7,61.2L31.7,61.2z"/>
			</g>
		</g>
		<g>
			<g>
				<path class="st3" d="M32.5,59.5c1.1,0,3.1-1.7,1.1-1.7C32.5,57.8,30.5,59.5,32.5,59.5L32.5,59.5z"/>
			</g>
		</g>
		<g>
			<g>
				<path class="st3" d="M32.2,58c0.9,0,3.1-1.3,1.2-1.3C32.6,56.7,30.3,58,32.2,58L32.2,58z"/>
			</g>
		</g>
		<g>
			<g>
				<path class="st3" d="M32.6,57.1c1.7,0,2.2-2.2,0.2-2.2C31.1,54.9,30.6,57.1,32.6,57.1L32.6,57.1z"/>
			</g>
		</g>
		<g>
			<g>
				<path class="st3" d="M34,56.2c1.6,0,2.2-2,0.3-2C32.7,54.1,32.1,56.2,34,56.2L34,56.2z"/>
			</g>
		</g>
		<g>
			<g>
				<path class="st3" d="M35,54.7c1.1,0,3.1-1.7,1.1-1.7C35,53,33,54.7,35,54.7L35,54.7z"/>
			</g>
		</g>
		<g>
			<g>
				<path class="st3" d="M35.9,54c1.6,0,2.2-2.1,0.3-2.1C34.5,51.9,33.9,54,35.9,54L35.9,54z"/>
			</g>
		</g>
		<g>
			<g>
				<path class="st3" d="M36.9,52.8c1,0,3.1-1.5,1.2-1.5C37,51.3,34.9,52.8,36.9,52.8L36.9,52.8z"/>
			</g>
		</g>
		<g>
			<g>
				<path class="st3" d="M37,51.8c1.3,0,3-1.9,1.1-1.9C36.8,49.9,35,51.8,37,51.8L37,51.8z"/>
			</g>
		</g>
		<g>
			<g>
				<path class="st3" d="M38.1,51.6c0.6,0,3.3-1.1,1.9-1.1C39.4,50.4,36.7,51.6,38.1,51.6L38.1,51.6z"/>
			</g>
		</g>
		<g>
			<g>
				<path class="st3" d="M39.3,51.5c1.7,0,2.2-2.2,0.2-2.2C37.8,49.2,37.3,51.5,39.3,51.5L39.3,51.5z"/>
			</g>
		</g>
		<g>
			<g>
				<path class="st4" d="M39.4,49.3c0.7,0,3.3-1.3,1.9-1.3C40.6,48,38,49.3,39.4,49.3L39.4,49.3z"/>
			</g>
		</g>
		<g>
			<g>
				<path class="st4" d="M39.8,50c0.6,0,3.3-1.2,1.9-1.2C41.1,48.7,38.4,50,39.8,50L39.8,50z"/>
			</g>
		</g>
		<g>
			<g>
				<path class="st4" d="M41.4,49c1.7,0,2.2-2.2,0.2-2.2C40,46.8,39.5,49,41.4,49L41.4,49z"/>
			</g>
		</g>
		<g>
			<g>
				<path class="st4" d="M41.3,46.9c0.9,0,3.1-1.3,1.2-1.3C41.6,45.6,39.3,46.9,41.3,46.9L41.3,46.9z"/>
			</g>
		</g>
		<g>
			<g>
				<path class="st4" d="M42.3,46.4c1.2,0,3-1.9,1.1-1.9C42.1,44.5,40.3,46.4,42.3,46.4L42.3,46.4z"/>
			</g>
		</g>
		<g>
			<g>
				<path class="st4" d="M42.1,45.1c0.7,0,3.3-1.3,1.9-1.3C43.3,43.9,40.6,45.1,42.1,45.1L42.1,45.1z"/>
			</g>
		</g>
		<g>
			<g>
				<path class="st4" d="M43.8,44.8c1.7,0,2.2-2.2,0.2-2.2C42.3,42.6,41.8,44.8,43.8,44.8L43.8,44.8z"/>
			</g>
		</g>
		<g>
			<g>
				<path class="st4" d="M43,43c1.2,0,3-1.9,1.1-1.9C42.9,41.1,41.1,43,43,43L43,43z"/>
			</g>
		</g>
		<g>
			<g>
				<path class="st4" d="M43.7,41.2c0.6,0,3.3-1.1,1.9-1.1C45,40.1,42.4,41.2,43.7,41.2L43.7,41.2z"/>
			</g>
		</g>
		<g>
			<g>
				<path class="st4" d="M44.3,40.7c0.9,0,3.1-1.3,1.2-1.3C44.6,39.4,42.3,40.7,44.3,40.7L44.3,40.7z"/>
			</g>
		</g>
		<g>
			<g>
				<path class="st4" d="M44.8,40.5c1.7,0,2.2-2.2,0.2-2.2C43.3,38.3,42.8,40.5,44.8,40.5L44.8,40.5z"/>
			</g>
		</g>
		<g>
			<g>
				<path class="st4" d="M44,38.8c1.6,0,2.2-2.1,0.3-2.1C42.7,36.7,42.1,38.8,44,38.8L44,38.8z"/>
			</g>
		</g>
		<g>
			<g>
				<path class="st4" d="M45.3,37.7c1.3,0,3-1.9,1-1.9C45,35.7,43.3,37.7,45.3,37.7L45.3,37.7z"/>
			</g>
		</g>
		<g>
			<g>
				<path class="st4" d="M45.6,36.2c1.1,0,3.1-1.7,1.1-1.7C45.6,34.5,43.6,36.2,45.6,36.2L45.6,36.2z"/>
			</g>
		</g>
		<g>
			<g>
				<path class="st4" d="M44.7,35.7c0.9,0,3.1-1.3,1.2-1.3C45,34.4,42.8,35.7,44.7,35.7L44.7,35.7z"/>
			</g>
		</g>
		<g>
			<g>
				<path class="st4" d="M43.7,35c0.6,0,3.3-1.1,1.9-1.1C45,33.8,42.3,35,43.7,35L43.7,35z"/>
			</g>
		</g>
		<g>
			<g>
				<path class="st4" d="M45.5,34.5c0.9,0,3.1-1.3,1.2-1.3C45.8,33.1,43.6,34.5,45.5,34.5L45.5,34.5z"/>
			</g>
		</g>
		<g>
			<g>
				<path class="st4" d="M46,33.6c1,0,3.1-1.5,1.2-1.5C46.1,32.2,44,33.6,46,33.6L46,33.6z"/>
			</g>
		</g>
		<g>
			<g>
				<path class="st4" d="M45.4,33.1c1.1,0,3.1-1.7,1.1-1.7C45.3,31.4,43.4,33.1,45.4,33.1L45.4,33.1z"/>
			</g>
		</g>
		<g>
			<g>
				<path class="st4" d="M45.2,31.7c1.1,0,3.1-1.7,1.1-1.7C45.2,30,43.2,31.7,45.2,31.7L45.2,31.7z"/>
			</g>
		</g>
		<g>
			<g>
				<path class="st5" d="M46.5,30.6c1.2,0,3-1.9,1.1-1.9C46.4,28.7,44.6,30.6,46.5,30.6L46.5,30.6z"/>
			</g>
		</g>
		<g>
			<g>
				<path class="st5" d="M45.8,29.4c0.9,0,3.1-1.3,1.2-1.3C46.2,28.1,43.9,29.4,45.8,29.4L45.8,29.4z"/>
			</g>
		</g>
		<g>
			<g>
				<path class="st5" d="M45.9,28.1c0.6,0,3.3-1.2,1.9-1.2C47.2,26.9,44.5,28.1,45.9,28.1L45.9,28.1z"/>
			</g>
		</g>
		<g>
			<g>
				<path class="st5" d="M45.6,28.6c0.6,0,3.3-1.2,1.9-1.2C46.9,27.4,44.2,28.6,45.6,28.6L45.6,28.6z"/>
			</g>
		</g>
		<g>
			<g>
				<path class="st5" d="M46.4,27.2c1.7,0,2.2-2.1,0.3-2.1C45,25.1,44.5,27.2,46.4,27.2L46.4,27.2z"/>
			</g>
		</g>
		<g>
			<g>
				<path class="st5" d="M44.8,25.2c1,0,3.1-1.6,1.1-1.6C44.9,23.7,42.9,25.2,44.8,25.2L44.8,25.2z"/>
			</g>
		</g>
		<g>
			<g>
				<path class="st5" d="M45.4,25.2c0.6,0,3.3-1.1,1.9-1.1C46.7,24.1,44,25.2,45.4,25.2L45.4,25.2z"/>
			</g>
		</g>
		<g>
			<g>
				<path class="st5" d="M45.5,24.2c1.7,0,2.2-2.2,0.2-2.2C44,22,43.5,24.2,45.5,24.2L45.5,24.2z"/>
			</g>
		</g>
		<g>
			<g>
				<path class="st5" d="M44.6,22.2c0.7,0,3.3-1.3,1.9-1.3C45.8,20.9,43.2,22.2,44.6,22.2L44.6,22.2z"/>
			</g>
		</g>
		<g>
			<g>
				<path class="st5" d="M44.7,21.4c0.9,0,3.1-1.3,1.2-1.3C45,20.1,42.7,21.4,44.7,21.4L44.7,21.4z"/>
			</g>
		</g>
		<g>
			<g>
				<path class="st5" d="M45,20.5c1.3,0,3-1.9,1.1-1.9C44.7,18.5,43,20.5,45,20.5L45,20.5z"/>
			</g>
		</g>
		<g>
			<g>
				<path class="st5" d="M45.7,18.7c0.7,0,3.3-1.2,1.9-1.2C46.9,17.4,44.3,18.7,45.7,18.7L45.7,18.7z"/>
			</g>
		</g>
		<g>
			<g>
				<path class="st5" d="M46.1,17.9c1.7,0,2.2-2.2,0.2-2.2C44.7,15.7,44.1,17.9,46.1,17.9L46.1,17.9z"/>
			</g>
		</g>
		<g>
			<g>
				<path class="st5" d="M47,17.3c1,0,3.1-1.5,1.2-1.5C47.2,15.9,45.1,17.3,47,17.3L47,17.3z"/>
			</g>
		</g>
		<g>
			<g>
				<path class="st5" d="M47.4,16.2c0.6,0,3.3-1.1,1.9-1.1C48.7,15.1,46,16.2,47.4,16.2L47.4,16.2z"/>
			</g>
		</g>
		<g>
			<g>
				<path class="st5" d="M48.9,15.3c1.7,0,2.2-2.2,0.2-2.2C47.5,13.1,47,15.3,48.9,15.3L48.9,15.3z"/>
			</g>
		</g>
		<g>
			<g>
				<path class="st5" d="M50.2,14.9c1.2,0,3-1.9,1.1-1.9C50,13,48.2,14.9,50.2,14.9L50.2,14.9z"/>
			</g>
		</g>
		<g>
			<g>
				<path class="st5" d="M50.6,13.3c0.6,0,3.3-1.1,1.9-1.1C52,12.1,49.3,13.3,50.6,13.3L50.6,13.3z"/>
			</g>
		</g>
		<g>
			<g>
				<path class="st5" d="M52.6,12.8c1.7,0,2.2-2.1,0.3-2.1C51.2,10.6,50.6,12.8,52.6,12.8L52.6,12.8z"/>
			</g>
		</g>
		<g>
			<g>
				<path class="st5" d="M52.9,11.1c1.2,0,3-1.9,1.1-1.9C52.7,9.3,50.9,11.1,52.9,11.1L52.9,11.1z"/>
			</g>
		</g>
		<g>
			<g>
				<path class="st5" d="M54.6,9.8c1.1,0,3.1-1.7,1.1-1.7C54.6,8.1,52.6,9.8,54.6,9.8L54.6,9.8z"/>
			</g>
		</g>
		<g>
			<g>
				<path class="st5" d="M56.6,9.6c1.3,0,3-2,1-2C56.3,7.6,54.7,9.6,56.6,9.6L56.6,9.6z"/>
			</g>
		</g>
		<g>
			<g>
				<path class="st5" d="M57.2,9.7c1,0,3.1-1.5,1.2-1.5C57.3,8.2,55.2,9.7,57.2,9.7L57.2,9.7z"/>
			</g>
		</g>
		<g>
			<g>
				<path class="st5" d="M58.3,10c0.6,0,3.3-1.2,1.9-1.2C59.6,8.8,56.9,10,58.3,10L58.3,10z"/>
			</g>
		</g>
		<g>
			<g>
				<path class="st5" d="M59.3,10.9c0.9,0,3.1-1.4,1.2-1.4C59.6,9.5,57.4,10.9,59.3,10.9L59.3,10.9z"/>
			</g>
		</g>
		<g>
			<g>
				<path class="st5" d="M59.1,10.7c1.3,0,3-2,1-2C58.9,8.7,57.2,10.7,59.1,10.7L59.1,10.7z"/>
			</g>
		</g>
		<g>
			<g>
				<path class="st5" d="M60.3,11.8c0.9,0,3.1-1.4,1.2-1.4C60.6,10.4,58.4,11.8,60.3,11.8L60.3,11.8z"/>
			</g>
		</g>
		<g>
			<g>
				<path class="st5" d="M60.7,12.8c0.9,0,3.1-1.4,1.2-1.4C61,11.4,58.8,12.8,60.7,12.8L60.7,12.8z"/>
			</g>
		</g>
		<g>
			<g>
				<path class="st5" d="M61.3,12.9c0.6,0,3.3-1.1,1.9-1.1C62.6,11.7,59.9,12.9,61.3,12.9L61.3,12.9z"/>
			</g>
		</g>
		<g>
			<g>
				<path class="st5" d="M62.1,14.2c1,0,3.1-1.5,1.2-1.5C62.3,12.8,60.2,14.2,62.1,14.2L62.1,14.2z"/>
			</g>
		</g>
		<g>
			<g>
				<path class="st5" d="M62,13.8c1.2,0,3-1.8,1.1-1.8C61.8,12,60,13.8,62,13.8L62,13.8z"/>
			</g>
		</g>
		<g>
			<g>
				<path class="st5" d="M62.8,15.6c1.3,0,3-2,1-2C62.5,13.7,60.8,15.6,62.8,15.6L62.8,15.6z"/>
			</g>
		</g>
		<g>
			<g>
				<path class="st5" d="M62.9,17c1.3,0,3-2,1-2C62.7,15,61,17,62.9,17L62.9,17z"/>
			</g>
		</g>
		<g>
			<g>
				<path class="st5" d="M62.7,19c1.2,0,3-1.8,1.1-1.8C62.6,17.2,60.8,19,62.7,19L62.7,19z"/>
			</g>
		</g>
		<g>
			<g>
				<path class="st5" d="M63.1,17.6c0.6,0,3.3-1.2,1.9-1.2C64.4,16.4,61.7,17.6,63.1,17.6L63.1,17.6z"/>
			</g>
		</g>
		<g>
			<g>
				<path class="st5" d="M63.9,20.3c0.9,0,3.1-1.3,1.2-1.3C64.2,19,61.9,20.3,63.9,20.3L63.9,20.3z"/>
			</g>
		</g>
		<g>
			<g>
				<path class="st5" d="M63.9,19.1c1.1,0,3.1-1.7,1.1-1.7C63.8,17.4,61.9,19.1,63.9,19.1L63.9,19.1z"/>
			</g>
		</g>
		<g>
			<g>
				<path class="st5" d="M64.6,21.7c0.6,0,3.3-1.1,1.9-1.1C65.9,20.6,63.2,21.7,64.6,21.7L64.6,21.7z"/>
			</g>
		</g>
		<g>
			<g>
				<path class="st5" d="M65,21c1.2,0,3-1.8,1.1-1.8C64.8,19.2,63,21,65,21L65,21z"/>
			</g>
		</g>
		<g>
			<g>
				<path class="st5" d="M66.4,21.8c1,0,3.1-1.6,1.1-1.6C66.5,20.2,64.5,21.8,66.4,21.8L66.4,21.8z"/>
			</g>
		</g>
		<g>
			<g>
				<path class="st5" d="M64.9,22.7c0.6,0,3.3-1.2,1.9-1.2C66.2,21.5,63.5,22.7,64.9,22.7L64.9,22.7z"/>
			</g>
		</g>
		<g>
			<g>
				<path class="st5" d="M64.3,23.7c0.6,0,3.3-1.2,1.9-1.2C65.6,22.5,62.9,23.7,64.3,23.7L64.3,23.7z"/>
			</g>
		</g>
		<g>
			<g>
				<path class="st5" d="M64.9,25.1c1.7,0,2.2-2.2,0.2-2.2C63.4,22.9,62.9,25.1,64.9,25.1L64.9,25.1z"/>
			</g>
		</g>
		<g>
			<g>
				<path class="st5" d="M66,25c1.7,0,2.2-2.2,0.2-2.2C64.5,22.8,64,25,66,25L66,25z"/>
			</g>
		</g>
		<g>
			<g>
				<path class="st5" d="M66.9,25.2c0.7,0,3.3-1.3,1.9-1.3C68.1,23.9,65.5,25.2,66.9,25.2L66.9,25.2z"/>
			</g>
		</g>
		<g>
			<g>
				<path class="st5" d="M65.7,26.2c1,0,3.1-1.5,1.2-1.5C65.9,24.7,63.8,26.2,65.7,26.2L65.7,26.2z"/>
			</g>
		</g>
		<g>
			<g>
				<path class="st5" d="M64.6,27.2c1.7,0,2.2-2.2,0.2-2.2C63.2,25,62.7,27.2,64.6,27.2L64.6,27.2z"/>
			</g>
		</g>
		<g>
			<g>
				<path class="st5" d="M64.2,28.3c1.1,0,3.1-1.6,1.1-1.6C64.3,26.7,62.3,28.3,64.2,28.3L64.2,28.3z"/>
			</g>
		</g>
		<g>
			<g>
				<path class="st5" d="M65.7,28.6c1,0,3.1-1.6,1.1-1.6C65.8,27,63.7,28.6,65.7,28.6L65.7,28.6z"/>
			</g>
		</g>
		<g>
			<g>
				<path class="st5" d="M64.9,29.5c0.6,0,3.3-1.1,1.9-1.1C66.2,28.4,63.5,29.5,64.9,29.5L64.9,29.5z"/>
			</g>
		</g>
		<g>
			<g>
				<path class="st5" d="M66.6,30c0.9,0,3.1-1.4,1.2-1.4C66.9,28.6,64.7,30,66.6,30L66.6,30z"/>
			</g>
		</g>
		<g>
			<g>
				<path class="st5" d="M67.8,30.5C67.8,30.5,67.9,30.5,67.8,30.5c0.7,0,1.6-0.2,1.9-0.8c0.3-0.6-0.3-1.1-0.8-1.1c0,0,0,0,0,0
					c-0.7,0-1.5,0.2-1.9,0.8C66.7,30,67.3,30.5,67.8,30.5L67.8,30.5z"/>
			</g>
		</g>
		<g>
			<g>
				<path class="st6" d="M66.2,31.7c1,0,3.1-1.6,1.2-1.6C66.3,30.1,64.3,31.7,66.2,31.7L66.2,31.7z"/>
			</g>
		</g>
		<g>
			<g>
				<path class="st6" d="M66,33.1c0.9,0,3.1-1.3,1.2-1.3C66.3,31.7,64,33.1,66,33.1L66,33.1z"/>
			</g>
		</g>
		<g>
			<g>
				<path class="st6" d="M67.5,33c0.9,0,3.1-1.3,1.2-1.3C67.8,31.8,65.5,33,67.5,33L67.5,33z"/>
			</g>
		</g>
		<g>
			<g>
				<path class="st6" d="M68,33.5C68,33.5,68,33.5,68,33.5c0.7,0,1.5-0.1,2.1-0.5c0.4-0.3,0.4-0.7-0.2-0.7c0,0,0,0,0,0
					c-0.7,0-1.5,0.1-2,0.5C67.4,33.1,67.4,33.5,68,33.5L68,33.5z"/>
			</g>
		</g>
		<g>
			<g>
				<path class="st6" d="M67.7,34.5c0.9,0,3.1-1.3,1.2-1.3C68.1,33.2,65.8,34.5,67.7,34.5L67.7,34.5z"/>
			</g>
		</g>
		<g>
			<g>
				<path class="st6" d="M68.2,36.2c1.2,0,3-1.8,1.1-1.8C68.1,34.3,66.3,36.2,68.2,36.2L68.2,36.2z"/>
			</g>
		</g>
		<g>
			<g>
				<path class="st6" d="M68.2,36.9c0.7,0,3.3-1.2,1.9-1.2C69.4,35.7,66.7,36.9,68.2,36.9L68.2,36.9z"/>
			</g>
		</g>
		<g>
			<g>
				<path class="st6" d="M68.8,37.9c1.2,0,3-1.9,1.1-1.9C68.6,36.1,66.8,37.9,68.8,37.9L68.8,37.9z"/>
			</g>
		</g>
		<g>
			<g>
				<path class="st6" d="M70.7,38c1.1,0,3.1-1.7,1.1-1.7C70.7,36.3,68.7,38,70.7,38L70.7,38z"/>
			</g>
		</g>
		<g>
			<g>
				<path class="st6" d="M69.2,39.7c1.7,0,2.2-2.3,0.2-2.3C67.7,37.5,67.2,39.7,69.2,39.7L69.2,39.7z"/>
			</g>
		</g>
		<g>
			<g>
				<path class="st6" d="M67.4,41.5c0.6,0,3.3-1.1,1.9-1.1C68.7,40.3,66,41.5,67.4,41.5L67.4,41.5z"/>
			</g>
		</g>
		<g>
			<g>
				<path class="st6" d="M68.7,40.8c0.9,0,3.1-1.4,1.2-1.4C69,39.4,66.8,40.8,68.7,40.8L68.7,40.8z"/>
			</g>
		</g>
		<g>
			<g>
				<path class="st6" d="M70.1,42.1c1.6,0,2.3-2,0.3-2C68.8,40.1,68.2,42.1,70.1,42.1L70.1,42.1z"/>
			</g>
		</g>
		<g>
			<g>
				<path class="st6" d="M68.2,43.4c0.9,0,3.1-1.4,1.2-1.4C68.5,42,66.3,43.4,68.2,43.4L68.2,43.4z"/>
			</g>
		</g>
		<g>
			<g>
				<path class="st6" d="M67.6,42.2c0.6,0,3.3-1.2,1.9-1.2C68.9,41,66.2,42.2,67.6,42.2L67.6,42.2z"/>
			</g>
		</g>
		<g>
			<g>
				<path class="st6" d="M67,44.6c0.7,0,3.3-1.3,1.9-1.3C68.2,43.4,65.5,44.6,67,44.6L67,44.6z"/>
			</g>
		</g>
		<g>
			<g>
				<path class="st6" d="M67.8,42.8c1,0,3.1-1.5,1.2-1.5C68,41.3,65.9,42.8,67.8,42.8L67.8,42.8z"/>
			</g>
		</g>
		<g>
			<g>
				<path class="st6" d="M67,44.3c0.6,0,3.3-1.2,1.9-1.2C68.3,43.1,65.6,44.3,67,44.3L67,44.3z"/>
			</g>
		</g>
		<g>
			<g>
				<path class="st6" d="M68,45.5c1.1,0,3.1-1.7,1.1-1.7C68,43.8,66,45.5,68,45.5L68,45.5z"/>
			</g>
		</g>
		<g>
			<g>
				<path class="st6" d="M67,47.1c1.7,0,2.2-2.2,0.2-2.2C65.6,44.9,65.1,47.1,67,47.1L67,47.1z"/>
			</g>
		</g>
		<g>
			<g>
				<path class="st6" d="M64.8,48.2c1.2,0,3-1.8,1.1-1.8C64.7,46.4,62.8,48.2,64.8,48.2L64.8,48.2z"/>
			</g>
		</g>
		<g>
			<g>
				<path class="st6" d="M64,49.3c0.6,0,3.3-1.2,1.9-1.2C65.2,48.1,62.6,49.3,64,49.3L64,49.3z"/>
			</g>
		</g>
		<g>
			<g>
				<path class="st6" d="M64.9,50c0.6,0,3.3-1.1,1.9-1.1C66.2,48.9,63.5,50,64.9,50L64.9,50z"/>
			</g>
		</g>
		<g>
			<g>
				<path class="st6" d="M65.1,49.9c1.3,0,3-1.9,1-1.9C64.8,47.9,63.1,49.9,65.1,49.9L65.1,49.9z"/>
			</g>
		</g>
		<g>
			<g>
				<path class="st3" d="M65.9,50.7c1,0,3.1-1.5,1.2-1.5C66,49.2,63.9,50.7,65.9,50.7L65.9,50.7z"/>
			</g>
		</g>
		<g>
			<g>
				<path class="st3" d="M64.4,51.7c1.6,0,2.3-2,0.3-2C63.1,49.7,62.5,51.7,64.4,51.7L64.4,51.7z"/>
			</g>
		</g>
		<g>
			<g>
				<path class="st3" d="M62.6,52.9c1.2,0,3-1.9,1.1-1.9C62.4,51.1,60.6,52.9,62.6,52.9L62.6,52.9z"/>
			</g>
		</g>
		<g>
			<g>
				<path class="st3" d="M62.4,54.4c1.6,0,2.3-2,0.3-2C61,52.4,60.4,54.4,62.4,54.4L62.4,54.4z"/>
			</g>
		</g>
		<g>
			<g>
				<path class="st3" d="M63.5,54.7c1.2,0,3.1-1.7,1.1-1.7C63.5,52.9,61.6,54.7,63.5,54.7L63.5,54.7z"/>
			</g>
		</g>
		<g>
			<g>
				<path class="st3" d="M62.2,56.4c1.6,0,2.2-2.1,0.3-2.1C60.8,54.3,60.3,56.4,62.2,56.4L62.2,56.4z"/>
			</g>
		</g>
		<g>
			<g>
				<path class="st3" d="M61.9,57.7c1,0,3.1-1.5,1.2-1.5C62.1,56.2,60,57.7,61.9,57.7L61.9,57.7z"/>
			</g>
		</g>
		<g>
			<g>
				<path class="st3" d="M61.7,58.4c0.6,0,3.3-1.1,1.9-1.1C63,57.3,60.4,58.4,61.7,58.4L61.7,58.4z"/>
			</g>
		</g>
		<g>
			<g>
				<path class="st3" d="M63.6,58.8c1.1,0,3.1-1.7,1.1-1.7C63.5,57,61.6,58.8,63.6,58.8L63.6,58.8z"/>
			</g>
		</g>
		<g>
			<g>
				<path class="st3" d="M62.9,60.1c1.3,0,3-1.9,1-1.9C62.7,58.2,61,60.1,62.9,60.1L62.9,60.1z"/>
			</g>
		</g>
		<g>
			<g>
				<path class="st3" d="M63.2,61.3c1,0,3.1-1.5,1.2-1.5C63.3,59.8,61.2,61.3,63.2,61.3L63.2,61.3z"/>
			</g>
		</g>
		<g>
			<g>
				<path class="st3" d="M64.1,62c1.2,0,3-1.8,1.1-1.8C63.9,60.2,62.1,62,64.1,62L64.1,62z"/>
			</g>
		</g>
		<g>
			<g>
				<path class="st3" d="M63.5,62.9c1.1,0,3.1-1.6,1.1-1.6C63.6,61.3,61.6,62.9,63.5,62.9L63.5,62.9z"/>
			</g>
		</g>
		<g>
			<g>
				<path class="st3" d="M62.5,63.6c0.6,0,3.3-1.1,1.9-1.1C63.8,62.5,61.2,63.6,62.5,63.6L62.5,63.6z"/>
			</g>
		</g>
		<g>
			<g>
				<path class="st3" d="M63.6,64.9c0.9,0,3.1-1.3,1.2-1.3C63.9,63.5,61.7,64.9,63.6,64.9L63.6,64.9z"/>
			</g>
		</g>
		<g>
			<g>
				<path class="st3" d="M63.2,64.4c1.3,0,3-1.9,1.1-1.9C62.9,62.5,61.2,64.4,63.2,64.4L63.2,64.4z"/>
			</g>
		</g>
		<g>
			<g>
				<path class="st3" d="M65.7,65.9c1.7,0,2.2-2.3,0.2-2.3C64.2,63.6,63.7,65.9,65.7,65.9L65.7,65.9z"/>
			</g>
		</g>
		<g>
			<g>
				<path class="st3" d="M66,66.4c0.7,0,3.3-1.3,1.9-1.3C67.2,65.1,64.6,66.4,66,66.4L66,66.4z"/>
			</g>
		</g>
		<g>
			<g>
				<path class="st3" d="M64.9,66.9c0.9,0,3.1-1.3,1.2-1.3C65.3,65.6,63,66.9,64.9,66.9L64.9,66.9z"/>
			</g>
		</g>
		<g>
			<g>
				<path class="st3" d="M64.3,68.1c1.1,0,3.1-1.7,1.1-1.7C64.3,66.4,62.4,68.1,64.3,68.1L64.3,68.1z"/>
			</g>
		</g>
		<g>
			<g>
				<path class="st3" d="M64.7,70c1,0,3.1-1.5,1.2-1.5C64.8,68.5,62.7,70,64.7,70L64.7,70z"/>
			</g>
		</g>
		<g>
			<g>
				<path class="st3" d="M64.3,69.2c1,0,3.1-1.5,1.2-1.5C64.4,67.7,62.3,69.2,64.3,69.2L64.3,69.2z"/>
			</g>
		</g>
		<g>
			<g>
				<path class="st3" d="M64.3,71.6c0.6,0,3.3-1.2,1.9-1.2C65.5,70.4,62.9,71.6,64.3,71.6L64.3,71.6z"/>
			</g>
		</g>
		<g>
			<g>
				<path class="st3" d="M65.3,71.4c1.7,0,2.2-2.2,0.2-2.2C63.9,69.1,63.4,71.4,65.3,71.4L65.3,71.4z"/>
			</g>
		</g>
		<g>
			<g>
				<path class="st3" d="M66.3,71.8c1,0,3.1-1.5,1.2-1.5C66.4,70.3,64.3,71.8,66.3,71.8L66.3,71.8z"/>
			</g>
		</g>
		<g>
			<g>
				<path class="st3" d="M66.5,72.8c1,0,3.1-1.5,1.2-1.5C66.7,71.3,64.6,72.8,66.5,72.8L66.5,72.8z"/>
			</g>
		</g>
		<g>
			<g>
				<path class="st3" d="M64.9,73.7c1.3,0,3-1.9,1.1-1.9C64.7,71.8,62.9,73.7,64.9,73.7L64.9,73.7z"/>
			</g>
		</g>
		<g>
			<g>
				<path class="st3" d="M64.7,75.1c1.7,0,2.2-2.2,0.2-2.2C63.3,72.9,62.7,75.1,64.7,75.1L64.7,75.1z"/>
			</g>
		</g>
		<g>
			<g>
				<path class="st3" d="M64.1,75.9c1,0,3.1-1.5,1.2-1.5C64.3,74.4,62.2,75.9,64.1,75.9L64.1,75.9z"/>
			</g>
		</g>
		<g>
			<g>
				<path class="st3" d="M65.4,76.3c0.9,0,3.1-1.3,1.2-1.3C65.7,75,63.5,76.3,65.4,76.3L65.4,76.3z"/>
			</g>
		</g>
		<g>
			<g>
				<path class="st3" d="M64.6,77.9c1.1,0,3.1-1.6,1.1-1.6C64.6,76.2,62.6,77.9,64.6,77.9L64.6,77.9z"/>
			</g>
		</g>
		<g>
			<g>
				<path class="st3" d="M62.6,77.4c0.7,0,3.3-1.2,1.9-1.2C63.8,76.2,61.1,77.4,62.6,77.4L62.6,77.4z"/>
			</g>
		</g>
		<g>
			<g>
				<path class="st3" d="M63.2,77.2c1.3,0,3-1.9,1.1-1.9C63,75.3,61.3,77.2,63.2,77.2L63.2,77.2z"/>
			</g>
		</g>
		<g>
			<g>
				<path class="st3" d="M62.1,79.5c1.6,0,2.3-2,0.3-2C60.8,77.5,60.1,79.5,62.1,79.5L62.1,79.5z"/>
			</g>
		</g>
		<g>
			<g>
				<path class="st3" d="M60,80.2c0.6,0,3.3-1.1,1.9-1.1C61.3,79.1,58.6,80.2,60,80.2L60,80.2z"/>
			</g>
		</g>
		<g>
			<g>
				<path class="st3" d="M58.9,80.8c1.2,0,3-1.8,1.1-1.8C58.8,79,56.9,80.8,58.9,80.8L58.9,80.8z"/>
			</g>
		</g>
		<g>
			<g>
				<path class="st3" d="M58.3,82.2c1.6,0,2.3-2,0.3-2C57,80.2,56.3,82.2,58.3,82.2L58.3,82.2z"/>
			</g>
		</g>
		<g>
			<g>
				<path class="st3" d="M55.8,83.1c0.9,0,3.1-1.3,1.2-1.3C56.2,81.8,53.9,83.1,55.8,83.1L55.8,83.1z"/>
			</g>
		</g>
		<g>
			<g>
				<path class="st3" d="M54.6,84.3c1.3,0,3-2,1-2C54.3,82.4,52.6,84.3,54.6,84.3L54.6,84.3z"/>
			</g>
		</g>
		<g>
			<g>
				<path class="st3" d="M55.4,84.8c0.9,0,3.1-1.4,1.2-1.4C55.7,83.4,53.5,84.8,55.4,84.8L55.4,84.8z"/>
			</g>
		</g>
		<g>
			<g>
				<path class="st3" d="M53.7,86.2c1,0,3.1-1.4,1.2-1.4C53.9,84.7,51.8,86.2,53.7,86.2L53.7,86.2z"/>
			</g>
		</g>
		<g>
			<g>
				<path class="st3" d="M52.7,85.8c1.7,0,2.2-2.1,0.3-2.1C51.3,83.7,50.7,85.8,52.7,85.8L52.7,85.8z"/>
			</g>
		</g>
		<g>
			<g>
				<path class="st3" d="M50.4,85.8c1.7,0,2.2-2.2,0.2-2.2C49,83.6,48.5,85.8,50.4,85.8L50.4,85.8z"/>
			</g>
		</g>
		<g>
			<g>
				<path class="st3" d="M49,86.5c1.6,0,2.3-2,0.3-2C47.7,84.5,47,86.5,49,86.5L49,86.5z"/>
			</g>
		</g>
		<g>
			<g>
				<path class="st3" d="M48,87.6c0.9,0,3.1-1.3,1.2-1.3C48.3,86.3,46,87.6,48,87.6L48,87.6z"/>
			</g>
		</g>
		<g>
			<g>
				<path class="st3" d="M47.6,89.2c1.2,0,3-1.9,1.1-1.9C47.4,87.3,45.6,89.2,47.6,89.2L47.6,89.2z"/>
			</g>
		</g>
		<g>
			<g>
				<path class="st3" d="M46.6,88c1,0,3.1-1.4,1.2-1.4C46.8,86.5,44.7,88,46.6,88L46.6,88z"/>
			</g>
		</g>
		<g>
			<g>
				<path class="st3" d="M45.3,87.5c0.7,0,3.3-1.3,1.9-1.3C46.5,86.2,43.9,87.5,45.3,87.5L45.3,87.5z"/>
			</g>
		</g>
		<g>
			<g>
				<path class="st3" d="M43.8,88.8c0.9,0,3.1-1.4,1.2-1.4C44,87.4,41.8,88.8,43.8,88.8L43.8,88.8z"/>
			</g>
		</g>
		<g>
			<g>
				<path class="st3" d="M43.7,89.7c0.9,0,3.1-1.4,1.2-1.4C44,88.3,41.8,89.7,43.7,89.7L43.7,89.7z"/>
			</g>
		</g>
		<g>
			<g>
				<path class="st3" d="M41.4,89.8c1,0,3.1-1.5,1.2-1.5C41.6,88.3,39.5,89.8,41.4,89.8L41.4,89.8z"/>
			</g>
		</g>
	</g>
</g>
</svg>
